<svg width="180" height="40" viewBox="0 0 180 40" fill="none" xmlns="http://www.w3.org/2000/svg">
<path d="M60.4806 13.9999H46.9327V18.1249H56.5668C56.0851 23.9374 51.3885 26.4999 46.993 26.4999C41.333 26.4999 36.3955 21.8749 36.3955 15.4374C36.3955 9.12491 41.0921 4.24991 46.993 4.24991C51.5691 4.24991 54.2185 7.24991 54.2185 7.24991L56.9883 4.24991C56.9883 4.24991 53.3755 0.124909 46.8123 0.124909C38.4428 0.0624095 32 7.37491 32 15.3124C32 23.0624 38.0815 30.6249 47.0532 30.6249C54.941 30.6249 60.7215 25.0624 60.7215 16.7499C60.7215 14.9999 60.4806 13.9999 60.4806 13.9999V13.9999Z" fill="#AEC0CE"/>
<path fill-rule="evenodd" clip-rule="evenodd" d="M61.9857 20.6874C61.9857 15.4374 65.9598 10.9374 71.4993 10.9374C76.0755 10.9374 81.0129 14.3124 81.0731 20.8124C81.0731 26.5624 76.8583 30.6249 71.6197 30.6249C65.8393 30.6249 61.9857 26.0624 61.9857 20.6874ZM76.8579 20.8122C76.8579 17.1872 74.2687 14.8747 71.5592 14.8747C68.4883 14.8747 66.14 17.3747 66.2002 20.7497C66.2002 24.2497 68.5485 26.7497 71.5592 26.7497C74.3289 26.7497 76.8579 24.4372 76.8579 20.8122Z" fill="#AEC0CE"/>
<path fill-rule="evenodd" clip-rule="evenodd" d="M82.6995 20.6874C82.6995 15.4374 86.6735 10.9374 92.2131 10.9374C96.7892 10.9374 101.727 14.3124 101.787 20.8124C101.787 26.5624 97.572 30.6249 92.3335 30.6249C86.5531 30.6249 82.6995 26.0624 82.6995 20.6874ZM97.5716 20.8122C97.5716 17.1872 94.9825 14.8747 92.2729 14.8747C89.2021 14.8747 86.8538 17.3747 86.914 20.7497C86.914 24.2497 89.2623 26.7497 92.2729 26.7497C95.0427 26.7497 97.5716 24.4372 97.5716 20.8122Z" fill="#AEC0CE"/>
<path fill-rule="evenodd" clip-rule="evenodd" d="M103.413 20.8123C103.413 15.6248 107.387 10.9998 112.505 10.9998C114.733 10.9998 116.419 11.8748 117.502 13.2498V11.5623H121.477V29.2498C121.477 36.1873 117.623 39.4998 112.565 39.4998C107.929 39.4998 105.34 36.5623 104.075 33.7498L107.748 32.1873C108.29 33.4373 109.735 35.6873 112.625 35.6873C115.636 35.6873 117.623 33.6248 117.623 30.2498V28.3123C116.479 29.6248 115.094 30.6873 112.384 30.6873C108.049 30.6873 103.413 26.6873 103.413 20.8123ZM117.924 20.8747C117.924 17.1247 115.335 14.8747 112.866 14.8747C110.217 14.8747 107.628 17.0622 107.568 20.9372C107.568 24.4997 110.097 26.8122 112.806 26.8122C115.395 26.8122 117.924 24.7497 117.924 20.8747Z" fill="#AEC0CE"/>
<path fill-rule="evenodd" clip-rule="evenodd" d="M130.448 20.7499C130.448 14.8749 134.482 10.9374 139.299 10.9374C143.032 10.9374 145.862 13.5624 147.127 16.5624L147.789 18.1874L135.084 23.6874C135.867 25.1874 137.071 26.6874 139.72 26.6874C142.069 26.6874 143.514 25.3749 144.357 23.9999L147.668 26.3124C146.223 28.3124 143.694 30.6249 139.72 30.6249C134.964 30.6249 130.448 26.9374 130.448 20.7499ZM142.971 16.8749C142.369 15.6874 141.165 14.7499 139.419 14.7499C136.709 14.7499 134.06 17.6874 134.542 20.5624L142.971 16.8749Z" fill="#AEC0CE"/>
<path d="M124.427 30.0623H128.582V1.06226H124.427V30.0623Z" fill="#AEC0CE"/>
</svg>
