<svg width="180" height="40" viewBox="0 0 180 40" fill="none" xmlns="http://www.w3.org/2000/svg">
<path fill-rule="evenodd" clip-rule="evenodd" d="M64.5587 26.4284C64.7321 26.8451 64.9056 27.3213 65.079 27.7975C65.5994 29.1665 65.715 30.476 65.5415 31.7856C65.1368 34.5237 63.4023 36.9046 60.8584 37.976C59.9334 38.3927 58.9505 38.5713 57.9098 38.5713C57.6207 38.5713 57.2738 38.5713 56.9847 38.5118C55.7706 38.3927 54.5565 37.976 53.3423 37.2618C51.8969 36.4284 50.4515 35.1784 48.8327 33.3927C47.2138 35.1784 45.8262 36.4284 44.323 37.2618C43.1089 37.976 41.8947 38.3332 40.6806 38.5118C40.536 38.5118 40.3771 38.5266 40.2181 38.5415C40.0591 38.5564 39.9001 38.5713 39.7555 38.5713C38.7148 38.5713 37.732 38.3927 36.8069 37.976C34.3208 36.9046 32.4707 34.5832 32.066 31.7856C31.8925 30.4165 32.066 29.107 32.5285 27.7975C32.702 27.2618 32.8754 26.8451 33.0489 26.4284C33.3379 25.7737 33.627 25.1189 33.8583 24.5237L33.9161 24.4641C36.46 18.8689 39.1195 13.2141 41.8947 7.6189L42.0104 7.3808C42.2994 6.84509 42.5885 6.24985 42.8776 5.65461C42.9555 5.52864 43.0333 5.40047 43.112 5.27094L43.112 5.27092C43.4423 4.72719 43.7871 4.15959 44.2074 3.6308C45.4215 2.20223 47.0404 1.3689 48.8327 1.3689C50.5672 1.3689 52.2438 2.20223 53.4001 3.69033C53.9783 4.34509 54.383 5.05937 54.7299 5.71413L54.7299 5.71415C55.019 6.30938 55.3081 6.90461 55.5972 7.44032L55.7128 7.67842C58.5458 13.2737 61.2053 18.9284 63.6914 24.5237H63.7492C63.9805 25.1189 64.2696 25.7737 64.5587 26.4284ZM93.0046 10.7142C93.0046 12.0832 91.9639 13.1547 90.6341 13.1547C89.3044 13.1547 88.2637 12.0832 88.2637 10.7142C88.2637 9.34514 89.3044 8.27372 90.6341 8.27372C92.0217 8.33324 93.0046 9.40467 93.0046 10.7142ZM83.3492 15.5952V16.1905C83.3492 16.1905 82.2507 14.7024 79.8224 14.7024C75.8909 14.7024 72.8267 17.7976 72.8267 22.0833C72.8267 26.3095 75.8909 29.4643 79.8224 29.4643C82.2507 29.4643 83.3492 27.9167 83.3492 27.9167V28.5714C83.3492 28.869 83.5805 29.1071 83.8695 29.1071H86.8182V15.0595H83.8695C83.5227 15.0595 83.3492 15.2976 83.3492 15.5952ZM80.4001 26.0714C81.7299 26.0714 82.8284 25.3571 83.3487 24.5238V19.5238C82.8284 18.75 81.6721 17.9762 80.4001 17.9762C78.0875 17.9762 76.2952 19.4643 76.2952 22.0238C76.2952 24.5833 78.0875 26.0714 80.4001 26.0714ZM88.8995 15.0595H92.3685V29.0476H88.8995V15.0595ZM137.233 16.1903C137.233 16.1903 138.39 14.7022 140.76 14.7022C144.692 14.7022 147.756 17.7975 147.756 22.0236C147.756 26.2498 144.692 29.4046 140.76 29.4046C138.332 29.4046 137.233 27.857 137.233 27.857V28.5117C137.233 28.8094 137.002 29.0475 136.713 29.0475H133.765V8.33317H137.233V16.1903ZM140.183 26.0119C138.853 26.0119 137.812 25.2977 137.234 24.4643V19.4643C137.754 18.6905 138.911 17.9167 140.183 17.9167C142.495 17.9167 144.288 19.4048 144.288 21.9643C144.288 24.5238 142.495 26.0119 140.183 26.0119ZM131.973 29.1071V20.7738C131.973 18.3929 131.51 17.0833 130.354 16.0714C129.313 15.1786 128.041 14.7024 126.538 14.7024C125.208 14.7024 123.878 15.119 122.838 16.1905V15.5952C122.838 15.2976 122.606 15.0595 122.317 15.0595H119.542V29.1071H123.011V19.3452C123.705 18.5119 124.804 17.9762 125.844 17.9762C127.752 17.9762 128.504 18.869 128.504 21.1905V29.1071H131.973ZM111.101 14.7022C108.73 14.7022 107.574 16.1903 107.574 16.1903V8.33317H104.105V29.0475H107.053C107.343 29.0475 107.574 28.8094 107.574 28.5117V27.857C107.574 27.857 108.672 29.4046 111.101 29.4046C115.032 29.4046 118.096 26.2498 118.096 22.0236C118.154 17.7975 115.09 14.7022 111.101 14.7022ZM107.574 24.4643C108.152 25.2977 109.192 26.0119 110.522 26.0119C112.835 26.0119 114.627 24.5238 114.627 21.9643C114.627 19.4048 112.835 17.9167 110.522 17.9167C109.25 17.9167 108.094 18.6905 107.574 19.4643V24.4643ZM101.156 14.7024C102.197 14.7024 102.775 14.8809 102.775 14.8809V18.2143C102.775 18.2143 99.8842 17.2024 98.0919 19.3452V29.1071H94.6229V15.0595H97.5715C97.8606 15.0595 98.0919 15.2976 98.0919 15.5952V16.1905C98.6701 15.4167 100.058 14.7024 101.156 14.7024ZM48.7754 29.7023C46.8096 27.1428 45.5377 24.7619 45.1329 22.7976C44.9595 21.9642 44.9017 21.1904 45.0173 20.5357C45.0751 19.9404 45.3064 19.4047 45.5955 18.988C46.2893 17.9761 47.4456 17.3214 48.7754 17.3214C50.1051 17.3214 51.3193 17.9166 51.9553 18.988C52.2443 19.4642 52.4756 19.9404 52.5334 20.5357C52.649 21.1904 52.5912 21.9642 52.4178 22.7976C52.0131 24.7619 50.7411 27.1428 48.7754 29.7023ZM59.9335 35.8332C61.7258 35.1189 62.9978 33.4523 63.2291 31.488C63.3447 30.4761 63.2291 29.5832 63.0556 28.6308C62.993 28.4375 62.9135 28.2441 62.8261 28.0319C62.7522 27.8521 62.6726 27.6588 62.5931 27.4404C62.4485 27.1427 62.3184 26.8302 62.1884 26.5177C62.0583 26.2052 61.9282 25.8927 61.7836 25.5951V25.5356C59.2976 19.9999 56.638 14.3451 53.8628 8.8094L53.7472 8.57131C53.4581 7.97607 53.169 7.38083 52.88 6.84512C52.5909 6.24988 52.244 5.65464 51.8393 5.17845C51.0877 4.28559 50.047 3.8094 48.9485 3.8094C47.8499 3.8094 46.8093 4.28559 46.0576 5.17845C45.6529 5.71417 45.306 6.24988 45.017 6.84512L45.0169 6.84522C44.7278 7.44043 44.4388 8.03563 44.1497 8.57131L44.0341 8.8094C41.2011 14.3451 38.5415 19.9999 36.0555 25.5356L35.9976 25.5951C35.7086 26.1904 35.4195 26.8451 35.1882 27.4404L35.1882 27.4404C35.0148 27.857 34.8413 28.2737 34.7257 28.6308C34.321 29.7023 34.2631 30.5951 34.3788 31.5475C34.61 33.4523 35.882 35.1189 37.6743 35.8927C38.4837 36.1904 39.4088 36.3689 40.3917 36.2499C41.3167 36.1308 42.2418 35.8332 43.1668 35.2975C44.4388 34.5237 45.7686 33.3927 47.2718 31.6666C44.9013 28.6308 43.3981 25.8332 42.8778 23.3927C42.5887 22.2618 42.5309 21.1904 42.7043 20.238C42.8778 19.2856 43.1668 18.4523 43.6872 17.6785C44.7857 16.0713 46.6936 15.0594 48.775 15.0594C50.8564 15.0594 52.7643 16.0118 53.8628 17.6785C54.3832 18.4523 54.6723 19.2856 54.8457 20.238C54.9613 21.1904 54.9035 22.2618 54.6723 23.3927C54.0941 25.8332 52.6487 28.5713 50.2782 31.607C51.7814 33.3332 53.0534 34.4642 54.3832 35.238C55.3661 35.7737 56.2333 36.0713 57.1584 36.1904C58.1412 36.3094 59.0663 36.1904 59.9335 35.8332Z" fill="#AEC0CE"/>
</svg>
