<svg width="180" height="40" viewBox="0 0 180 40" fill="none" xmlns="http://www.w3.org/2000/svg">
<path d="M50.2121 8.41564V22.5174C50.2121 27.218 48.2463 29.1715 43.6211 29.1715C38.9958 29.1715 37.03 27.218 37.03 22.5174V7.80518H32.5782C32.1734 7.80518 32 7.98832 32 8.41564V22.7005C32 30.5755 36.7409 33.3226 43.6211 33.3226C50.5012 33.3226 55.2421 30.5755 55.2421 22.7005V7.80518H50.7903C50.4434 7.80518 50.2121 7.98832 50.2121 8.41564" fill="#AEC0CE"/>
<path d="M114.792 11.8952C115.139 11.8952 115.313 11.7731 115.428 11.4678L116.7 8.11029C116.758 7.92715 116.7 7.80505 116.527 7.80505H98.6039C96.9272 7.80505 96.2913 8.35447 96.2913 9.5754V31.4301C96.2913 32.4678 96.7538 32.8952 98.0836 32.8952H114.792C115.139 32.8952 115.313 32.7731 115.428 32.4678L116.7 29.1103C116.758 28.9271 116.7 28.8051 116.527 28.8051H101.206V24.3487C101.206 22.8225 102.015 22.0899 104.154 22.0899H110.803C111.15 22.0899 111.323 21.9678 111.439 21.6626L112.653 18.4271C112.711 18.244 112.653 18.1219 112.48 18.1219H101.148V11.8952H114.792" fill="#AEC0CE"/>
<path fill-rule="evenodd" clip-rule="evenodd" d="M86.0002 14.1539C86.0002 16.5347 85.1908 18.5492 83.225 19.6481C85.8846 20.4417 87.0987 22.9446 87.0409 25.9359C87.0409 30.9417 83.6876 32.8952 79.0045 32.8952H66.574C65.2442 32.8952 64.7817 32.4678 64.7817 31.4301V9.5754C64.7817 8.35447 65.4177 7.80505 67.0943 7.80505H77.27C81.7218 7.80505 86.0002 8.59866 86.0002 14.1539ZM69.7534 11.8343H77.6164C80.2181 11.8343 80.9697 12.8721 80.9697 15.0698C80.9697 17.2064 80.2181 18.3053 77.6164 18.3053H69.7534V11.8343ZM78.5414 28.8661H69.7534V24.2877C69.7534 22.7615 70.5628 22.0289 72.702 22.0289H78.5414C81.3166 22.0289 82.126 23.1888 82.126 25.4475C82.126 27.7673 81.3166 28.8661 78.5414 28.8661Z" fill="#AEC0CE"/>
<path fill-rule="evenodd" clip-rule="evenodd" d="M142.486 22.8225L147.805 32.4678C147.921 32.5899 147.921 32.8952 147.516 32.8952H143.007C142.673 32.8952 142.553 32.726 142.391 32.496C142.384 32.4867 142.377 32.4773 142.371 32.4678L137.572 23.3109H133.178C131.039 23.3109 130.229 24.0434 130.229 25.5696V32.8952H125.893C125.488 32.8952 125.315 32.712 125.315 32.2847V9.5754C125.315 8.35447 125.951 7.80505 127.628 7.80505H137.803C143.7 7.80505 147.285 9.45331 147.285 15.558C147.285 20.2585 145.146 22.0899 142.486 22.8225ZM130.229 19.4651H138.497C141.619 19.4651 142.255 18.1832 142.255 15.6192C142.255 13.1163 141.561 11.8343 138.497 11.8343H130.229V19.4651Z" fill="#AEC0CE"/>
</svg>
