<svg width="180" height="40" viewBox="0 0 180 40" fill="none" xmlns="http://www.w3.org/2000/svg">
<path fill-rule="evenodd" clip-rule="evenodd" d="M45.6184 34.1871L45.6183 34.1871L45.6182 34.1871C44.9494 34.2579 44.2704 34.3298 43.5752 34.4181L37.9971 17.7545V35.1272C36.2539 35.3045 34.6851 35.5409 33 35.8363V3.98633H37.6484L43.9819 22.0681V3.98633H48.9208V33.7682C47.8295 33.9531 46.7382 34.0686 45.6184 34.1871ZM58.5663 15.6863C59.5479 15.6863 60.7883 15.6554 61.9992 15.6251H61.9992L61.9993 15.6251L61.9998 15.6251C63.1542 15.5963 64.2816 15.5681 65.1322 15.5681V20.5318C62.9823 20.5318 60.4257 20.5318 58.5663 20.65V28.0363C59.4718 27.98 60.3832 27.9176 61.2986 27.855L61.2988 27.855H61.2988H61.2989H61.2989H61.2989C63.2617 27.7207 65.2428 27.5851 67.224 27.5045V32.2909L53.6855 33.3545V3.98633H67.224V8.94997H58.5663V15.6863ZM80.2974 9.00906H85.3526C85.3526 9.00906 85.3526 3.98633 85.4107 3.98633H70.3614V9.00906H75.4166V31.9363C76.9854 31.8772 78.6705 31.8772 80.2974 31.8772V9.00906ZM92.3138 15.3318H98.9959V20.2954H92.3138V31.5818H87.491V3.98633H101.146V8.94996H92.3138V15.3318ZM114.174 27.4466C112.493 27.3462 110.8 27.2449 109.107 27.2091V3.98633H104.226V31.8772C108.7 31.9954 113.058 32.2318 117.416 32.5272V27.6227C116.343 27.5763 115.261 27.5116 114.174 27.4466L114.174 27.4466ZM121.542 32.8818C122.085 32.9227 122.636 32.9566 123.191 32.9907C124.238 33.0551 125.301 33.1205 126.364 33.2363V3.98633H121.542V32.8818ZM141.53 19.1136L147.747 3.98633H142.343L138.915 12.3181L135.719 3.98633H130.49L136.184 18.9363L129.909 33.4727C130.606 33.5672 131.303 33.6429 132 33.7185C133.046 33.832 134.092 33.9454 135.138 34.1227L138.741 25.6727L142.227 34.8909C142.878 34.9943 143.522 35.1051 144.164 35.2154C145.355 35.4202 146.539 35.6237 147.747 35.7772L141.53 19.1136Z" fill="#AEC0CE"/>
</svg>
