<svg width="180" height="40" viewBox="0 0 180 40" fill="none" xmlns="http://www.w3.org/2000/svg">
<path d="M47.836 3.999C47.306 2.2059 45.4511 1.24038 43.7286 1.7921C42.0062 2.34383 41.0787 4.27486 41.6087 6.06796L50.0884 33.2404C50.6846 34.8956 52.4071 35.8611 54.0633 35.3783C55.7857 34.8266 56.8457 32.9645 56.3157 31.1714C56.3157 31.1024 47.836 3.999 47.836 3.999" fill="#AEC0CE"/>
<path d="M34.7191 8.48179C34.1891 6.68868 32.3342 5.72317 30.6117 6.27489C28.8893 6.82662 27.9618 8.75765 28.4918 10.5508L36.9715 37.7232C37.5677 39.3783 39.2902 40.3439 40.9464 39.8611C42.6688 39.3094 43.7288 37.4473 43.1988 35.6542C43.1988 35.5852 34.7191 8.48179 34.7191 8.48179" fill="#AEC0CE"/>
<path d="M58.5685 26.5506C60.2909 25.9989 61.2184 24.0679 60.6884 22.2748C60.1584 20.4817 58.3035 19.5161 56.5811 20.0679L30.4132 28.8265C28.8233 29.4472 27.8958 31.2403 28.3595 32.9644C28.8895 34.7575 30.6782 35.861 32.4006 35.3092C32.5331 35.3092 58.5685 26.5506 58.5685 26.5506" fill="#AEC0CE"/>
<path d="M35.8455 34.2057C37.568 33.6539 39.7542 32.8953 42.0728 32.0677C41.5429 30.2746 40.8141 27.9988 40.0192 25.585L33.7919 27.7229L35.8455 34.2057" fill="#AEC0CE"/>
<path d="M49.0282 29.723C51.4131 28.8954 53.5993 28.2057 55.2554 27.5851C54.7255 25.792 53.9967 23.5161 53.2018 21.1023L46.9745 23.2402L49.0282 29.723" fill="#AEC0CE"/>
<path d="M54.2623 12.8265C55.9847 12.2748 56.9122 10.3437 56.3822 8.55064C55.8522 6.75753 53.9973 5.79201 52.2748 6.34374L26.1732 15.1713C24.5833 15.792 23.6558 17.5851 24.1195 19.3093C24.6495 21.1713 26.4382 22.2748 28.1607 21.6541C28.2269 21.6541 54.2623 12.8265 54.2623 12.8265" fill="#AEC0CE"/>
<path d="M31.6056 20.4817C33.328 19.9299 35.5142 19.1713 37.8328 18.3437C37.0379 15.861 36.3754 13.5851 35.7792 11.861L29.5519 13.9989L31.6056 20.4817" fill="#AEC0CE"/>
<path d="M44.7225 16.0678C47.1074 15.2402 49.2936 14.5506 50.9498 13.9299C50.1548 11.4471 49.4923 9.17128 48.8961 7.44714L42.6688 9.58507L44.7225 16.0678" fill="#AEC0CE"/>
<path d="M85.0013 11.1713C86.1275 11.723 86.26 12.0678 85.3325 13.8609C84.405 15.723 84.2063 15.792 83.0138 15.3092C81.5564 14.6885 79.7677 14.2058 78.5752 14.2058C76.654 14.2058 75.3953 14.8954 75.3953 15.9989C75.3953 19.5851 86.4587 17.654 86.4587 25.3782C86.4587 29.2402 83.2788 31.792 78.509 31.792C75.9916 31.792 72.8779 30.8954 70.758 29.792C69.698 29.2402 69.6318 28.8954 70.5593 27.0333C71.3542 25.4471 71.6192 25.2402 72.7454 25.723C74.6004 26.5506 76.8528 27.1713 78.4427 27.1713C80.2314 27.1713 81.3576 26.4127 81.3576 25.3092C81.3576 21.792 70.0955 23.4471 70.0955 15.9989C70.0955 12.0678 73.2754 9.37817 77.979 9.37817C80.2314 9.58507 83.0801 10.2747 85.0013 11.1713" fill="#AEC0CE"/>
<path d="M93.9451 2.06787V30.7575C93.9451 31.1713 93.4814 31.6541 92.8852 31.6541H89.9703C89.3078 31.6541 88.9103 31.1713 88.9103 30.7575V2.06787C88.9103 0.619593 89.3078 0.550627 91.4277 0.550627C93.8126 0.481662 93.9451 0.688558 93.9451 2.06787" fill="#AEC0CE"/>
<path fill-rule="evenodd" clip-rule="evenodd" d="M114.482 30.4816V18.1368C114.482 12.7575 110.97 9.58508 105.406 9.58508C102.888 9.58508 100.106 10.4127 98.1184 11.792C97.0584 12.4816 97.0584 12.8265 98.1184 14.5506C99.2446 16.2747 99.4434 16.3437 100.503 15.723C101.828 14.8954 103.484 14.3437 104.876 14.3437C107.791 14.3437 109.513 15.723 109.513 17.9989V19.4472C108.122 18.8265 106.399 18.4816 104.544 18.4816C99.5758 18.4816 96.3297 21.2403 96.3297 25.3782C96.3297 29.2403 99.2446 31.861 103.551 31.861C105.803 31.861 108.056 30.8954 109.579 29.1023L109.513 30.4127C109.447 31.1023 109.91 31.5851 110.573 31.5851H113.422C114.018 31.5851 114.482 31.1713 114.482 30.4816ZM104.147 27.723C102.358 27.723 101.166 26.7575 101.166 25.3092C101.166 23.5161 102.954 22.1368 105.604 22.1368C106.863 22.1368 108.32 22.3437 109.447 22.8264V24.7575C108.32 26.6195 106.333 27.723 104.147 27.723Z" fill="#AEC0CE"/>
<path d="M134.157 11.2402C135.217 11.8609 135.217 12.2058 134.091 14.0678C133.031 15.792 132.832 15.9299 131.64 15.3092C130.779 14.8265 129.321 14.4127 128.195 14.4127C124.551 14.4127 122.166 16.8954 122.166 20.6885C122.166 24.6196 124.551 27.2403 128.195 27.2403C129.454 27.2403 131.044 26.7575 132.037 26.1368C133.097 25.5161 133.296 25.5161 134.422 27.2403C135.416 28.8265 135.416 29.1713 134.489 29.8609C132.899 31.0334 130.315 31.9299 128.063 31.9299C121.372 31.9299 116.867 27.4471 116.867 20.7575C116.867 14.0678 121.372 9.65404 128.129 9.65404C130.249 9.58508 132.634 10.2747 134.157 11.2402" fill="#AEC0CE"/>
<path d="M156.085 28.8952C156.946 29.9987 156.615 30.4125 154.495 31.1711C152.375 31.9987 152.044 31.9297 151.315 30.8952L145.287 22.5504L142.571 25.2401V30.6884C142.571 31.1021 142.107 31.5849 141.511 31.5849H138.596C137.933 31.5849 137.536 31.1021 137.536 30.6884V2.06766C137.536 0.619381 137.933 0.550415 140.053 0.550415C142.504 0.550415 142.571 0.757312 142.571 2.06766V18.3435L150.785 10.1366C151.713 9.24007 152.177 9.30904 153.833 10.4125C155.621 11.5849 155.754 11.9297 154.893 12.8263L148.798 19.0332L156.085 28.8952" fill="#AEC0CE"/>
</svg>
